<svg xmlns="http://www.w3.org/2000/svg" xmlns:xlink="http://www.w3.org/1999/xlink" version="1.1">
    <defs>
        <symbol id="icon-cart" viewBox="0 0 24 24">
            <path
                d="M5.196 19.9444C6.036 19.9444 6.696 20.6044 6.696 21.46C6.696 22.3156 6.036 23 5.196 23C4.356 23 3.696 22.3278 3.696 21.4722C3.696 20.6167 4.356 19.9444 5.196 19.9444ZM19.38 19.9444C20.22 19.9444 20.88 20.6044 20.88 21.46C20.88 22.3156 20.22 23 19.38 23C18.54 23 17.88 22.3278 17.88 21.4722C17.88 20.6167 18.54 19.9444 19.38 19.9444ZM0.3 1L3.528 1.61111L24 4.50778L21.504 13.2344L6.384 13.7844L6.78 16.1922C6.888 16.8033 7.38 17.28 7.98 17.3411H21.168V19.0156H8.124C7.44812 19.0144 6.79242 18.7808 6.26316 18.3527C5.73391 17.9246 5.3621 17.3269 5.208 16.6567L5.172 16.4733L4.704 13.6622L2.724 3.13889L0 2.63778L0.3 1ZM4.44 3.42L6.084 12.1344L20.256 11.6211L21.9 5.90111L4.44 3.42Z"
                fill="currentColor" />
        </symbol>
    </defs>
</svg>